<svg width="564" height="555" viewBox="0 0 564 555" fill="none" xmlns="http://www.w3.org/2000/svg">
  <g filter="url(#blur)">
    <path
      d="M405.777 40.7164C447.843 45.9935 482.374 83.1574 493.509 125.935C504.531 168.713 492.047 217.105 498.683 269.426C505.319 321.747 531.188 377.886 522.078 424.032C512.967 470.291 468.989 506.444 420.287 513.63C371.585 520.703 318.159 498.697 271.931 486.234C225.703 473.771 186.786 470.852 162.379 449.632C138.084 428.524 128.299 389.114 109.628 355.431C90.8444 321.747 63.0628 293.678 49.4532 257.749C35.8436 221.82 36.2935 178.032 54.9645 144.124C73.6355 110.329 110.415 86.3012 148.432 78.6663C186.337 71.0314 225.591 79.5645 269.906 70.6946C314.222 61.8246 363.711 35.3271 405.777 40.7164Z"
      fill="url(#linear_gradient)" />
  </g>
  <defs>
    <filter id="blur" x="0" y="0" width="564" height="555" filterUnits="userSpaceOnUse"
      color-interpolation-filters="sRGB">
      <feFlood flood-opacity="0" result="BackgroundImageFix" />
      <feBlend mode="normal" in="SourceGraphic" in2="BackgroundImageFix" result="shape" />
      <feGaussianBlur stdDeviation="20" result="effect1_foregroundBlur_92_4" />
    </filter>
    <linearGradient id="linear_gradient" x1="358.755" y1="4.26252e-06" x2="125.245" y2="475"
      gradientUnits="userSpaceOnUse">
      <stop stop-color="#FF00B8" />
      <stop offset="1" stop-color="#731EFF" />
    </linearGradient>
  </defs>
</svg>