<svg width="48" height="37" viewBox="0 0 48 37" fill="none" xmlns="http://www.w3.org/2000/svg">
<path d="M40.6273 3.10224C37.5212 1.66462 34.2132 0.605316 30.7283 0C30.299 0.756645 29.7939 1.79073 29.4657 2.62303C25.7788 2.06816 22.1171 2.06816 18.506 2.62303C18.1525 1.79073 17.6474 0.756645 17.2182 0C13.7333 0.605316 10.4252 1.66462 7.31912 3.10224C1.05647 12.5351 -0.63546 21.741 0.197877 30.7955C4.36456 33.8978 8.37973 35.7641 12.3444 37C13.3292 35.6633 14.1878 34.2256 14.9454 32.7376C13.506 32.2079 12.1424 31.5269 10.8545 30.7451C11.208 30.4929 11.5363 30.2154 11.8646 29.9632C19.7686 33.6455 28.3293 33.6455 36.1323 29.9632C36.4606 30.2406 36.7889 30.4929 37.1425 30.7451C35.8546 31.5269 34.4657 32.1827 33.0515 32.7376C33.8091 34.2256 34.6677 35.6633 35.6525 37C39.6172 35.7641 43.6576 33.8978 47.7991 30.7955C48.7839 20.2782 46.1071 11.1731 40.6778 3.10224H40.6273ZM16.006 25.2468C13.6323 25.2468 11.6878 23.0525 11.6878 20.3538C11.6878 17.6551 13.5818 15.4608 16.006 15.4608C18.4303 15.4608 20.3495 17.6551 20.3242 20.3538C20.3242 23.0273 18.4303 25.2468 16.006 25.2468ZM31.9404 25.2468C29.5667 25.2468 27.6222 23.0525 27.6222 20.3538C27.6222 17.6551 29.5162 15.4608 31.9404 15.4608C34.3647 15.4608 36.2839 17.6551 36.2586 20.3538C36.2586 23.0273 34.3647 25.2468 31.9404 25.2468Z" fill="#E4ECF3"/>
</svg>
