<svg width="45" height="46" viewBox="0 0 45 46" fill="none" xmlns="http://www.w3.org/2000/svg">
<path fill-rule="evenodd" clip-rule="evenodd" d="M22.5 0C34.9268 0 45 10.5568 45 23.5817C45 33.9984 38.5605 42.8351 29.6257 45.9561C28.485 46.1884 28.08 45.452 28.08 44.8241C28.08 44.0467 28.107 41.5076 28.107 38.352C28.107 36.1532 27.387 34.7181 26.5793 33.9867C31.59 33.4025 36.855 31.4082 36.855 22.3509C36.855 19.7749 35.982 17.6728 34.5375 16.0214C34.7715 15.4257 35.5432 13.0271 34.317 9.77948C34.317 9.77948 32.4315 9.1476 28.1362 12.1974C26.3385 11.6753 24.4125 11.4126 22.5 11.4034C20.5875 11.4126 18.6638 11.6753 16.8683 12.1974C12.5685 9.1476 10.6785 9.77948 10.6785 9.77948C9.45675 13.0271 10.2285 15.4257 10.4603 16.0214C9.0225 17.6728 8.14276 19.7749 8.14276 22.3509C8.14276 31.3852 13.3965 33.4101 18.3938 34.0058C17.7503 34.5946 17.1675 35.6333 16.965 37.1582C15.6825 37.7608 12.4245 38.8037 10.4175 35.1996C10.4175 35.1996 9.22725 32.9338 6.96825 32.7682C6.96825 32.7682 4.7745 32.7384 6.81525 34.2012C6.81525 34.2012 8.289 34.9257 9.31275 37.6512C9.31275 37.6512 10.6335 41.8601 16.893 40.4341C16.9043 42.4052 16.9245 44.2629 16.9245 44.8241C16.9245 45.4474 16.5105 46.1769 15.3877 45.9584C6.44624 42.8419 0 34.0007 0 23.5817C0 10.5568 10.0755 0 22.5 0Z" fill="#E4ECF3"/>
</svg>
