<svg width="49" height="49" viewBox="0 0 49 49" fill="none" xmlns="http://www.w3.org/2000/svg">
<path fill-rule="evenodd" clip-rule="evenodd" d="M24.5 36.75C31.2655 36.75 36.75 31.2655 36.75 24.5C36.75 17.7345 31.2655 12.25 24.5 12.25C17.7345 12.25 12.25 17.7345 12.25 24.5C12.25 31.2655 17.7345 36.75 24.5 36.75ZM24.5 32.6667C29.0102 32.6667 32.6667 29.0102 32.6667 24.5C32.6667 19.9897 29.0102 16.3333 24.5 16.3333C19.9897 16.3333 16.3333 19.9897 16.3333 24.5C16.3333 29.0102 19.9897 32.6667 24.5 32.6667Z" fill="#E4ECF3"/>
<path d="M36.75 10.2084C35.6224 10.2084 34.7084 11.1225 34.7084 12.25C34.7084 13.3776 35.6224 14.2917 36.75 14.2917C37.8777 14.2917 38.7917 13.3776 38.7917 12.25C38.7917 11.1225 37.8777 10.2084 36.75 10.2084Z" fill="#E4ECF3"/>
<path fill-rule="evenodd" clip-rule="evenodd" d="M3.37679 8.73025C2.04163 11.3507 2.04163 14.781 2.04163 21.6416V27.3583C2.04163 34.2189 2.04163 37.6493 3.37679 40.2696C4.55124 42.5746 6.42525 44.4487 8.73025 45.623C11.3507 46.9583 14.781 46.9583 21.6416 46.9583H27.3583C34.2189 46.9583 37.6493 46.9583 40.2696 45.623C42.5746 44.4487 44.4487 42.5746 45.623 40.2696C46.9583 37.6493 46.9583 34.2189 46.9583 27.3583V21.6416C46.9583 14.781 46.9583 11.3507 45.623 8.73025C44.4487 6.42525 42.5746 4.55124 40.2696 3.37679C37.6493 2.04163 34.2189 2.04163 27.3583 2.04163H21.6416C14.781 2.04163 11.3507 2.04163 8.73025 3.37679C6.42525 4.55124 4.55124 6.42525 3.37679 8.73025ZM27.3583 6.12496H21.6416C18.1439 6.12496 15.7662 6.12814 13.9284 6.27829C12.1382 6.42455 11.2227 6.68966 10.584 7.01507C9.04738 7.79804 7.79804 9.04738 7.01507 10.584C6.68966 11.2227 6.42455 12.1382 6.27829 13.9284C6.12814 15.7662 6.12496 18.1439 6.12496 21.6416V27.3583C6.12496 30.8561 6.12814 33.2336 6.27829 35.0715C6.42455 36.8618 6.68966 37.7773 7.01507 38.416C7.79804 39.9525 9.04738 41.2018 10.584 41.9848C11.2227 42.3102 12.1382 42.5754 13.9284 42.7216C15.7662 42.8717 18.1439 42.875 21.6416 42.875H27.3583C30.8561 42.875 33.2336 42.8717 35.0715 42.7216C36.8618 42.5754 37.7773 42.3102 38.416 41.9848C39.9525 41.2018 41.2018 39.9525 41.9848 38.416C42.3102 37.7773 42.5754 36.8618 42.7216 35.0715C42.8717 33.2336 42.875 30.8561 42.875 27.3583V21.6416C42.875 18.1439 42.8717 15.7662 42.7216 13.9284C42.5754 12.1382 42.3102 11.2227 41.9848 10.584C41.2018 9.04738 39.9525 7.79804 38.416 7.01507C37.7773 6.68966 36.8618 6.42455 35.0715 6.27829C33.2336 6.12814 30.8561 6.12496 27.3583 6.12496Z" fill="#E4ECF3"/>
</svg>
